<svg xmlns="http://www.w3.org/2000/svg" viewBox="0 0 560 640" preserveAspectRatio="xMidYMid meet" class="africa-map"><g transform="translate(0.00,26.31)"><path class="africa-country" data-name="Tanzania" data-iso="TZA" data-covered="true" d="M417.67,311.47L419.02,312.35L448.13,328.71L448.68,333.37L460.20,341.39L456.50,351.28L456.97,355.83L462.11,358.76L462.35,360.84L460.14,365.69L460.60,368.13L460.08,371.97L462.88,377.00L466.20,384.91L469.15,386.67L469.15,386.67L462.76,391.32L453.98,394.44L449.17,394.31L446.31,396.72L440.72,396.92L438.62,397.94L428.98,395.68L422.94,396.33L420.69,385.41L417.97,381.66L416.35,379.44L408.48,377.95L403.93,375.54L398.82,374.19L395.62,372.84L392.27,370.80L392.27,370.80L387.94,360.68L383.28,356.19L381.67,351.53L382.48,347.36L381.03,339.97L384.35,339.59L387.26,336.68L390.39,332.49L392.37,330.81L392.30,328.20L390.57,326.39L390.10,323.22L390.10,323.22L392.42,322.21L392.88,317.48L389.70,312.96L392.51,311.99L401.31,312.09L417.67,311.47Z"/><path class="africa-country" data-name="W. Sahara" data-iso="ESH" data-covered="false" d="M75.94,81.83L75.94,82.37L75.79,83.92L75.76,96.08L49.42,95.66L49.67,116.20L42.15,116.92L40.19,121.05L41.71,132.64L10.27,132.59L8.52,135.27L8.87,131.88L9.01,131.89L27.09,131.25L28.05,128.35L31.34,124.75L33.99,113.66L45.15,105.00L48.92,94.88L51.43,94.29L54.05,88.04L60.80,87.17L63.70,88.22L67.35,88.22L69.94,86.39L74.90,86.13L74.72,81.83L75.94,81.83Z"/><path class="africa-country" data-name="Dem. Rep. Congo" data-iso="COD" data-covered="false" d="M381.03,339.97L382.48,347.36L381.67,351.53L383.28,356.19L387.94,360.68L392.27,370.80L392.27,370.80L389.11,369.98L378.33,371.34L376.17,372.29L373.89,377.42L375.68,380.96L374.26,390.46L373.26,398.52L375.43,399.95L381.05,403.07L383.25,401.61L383.92,410.27L377.78,410.20L374.48,405.79L371.52,402.37L365.37,401.24L363.57,397.04L358.66,399.57L352.23,398.45L349.55,394.81L344.45,394.07L340.69,394.26L340.23,391.77L337.46,391.56L333.80,391.09L328.83,392.29L325.34,392.09L323.36,392.83L323.79,383.28L321.11,380.30L320.52,375.36L321.70,370.52L320.07,367.43L319.93,362.37L310.19,362.45L310.89,359.55L306.79,359.58L306.36,360.97L301.38,361.29L299.36,365.97L298.16,367.97L293.73,366.84L291.08,367.97L285.77,368.62L282.69,364.42L280.85,361.82L278.55,357.01L276.57,351.03L252.88,350.92L250.06,351.89L247.73,351.74L244.42,352.82L243.30,350.33L245.34,349.48L245.59,345.98L246.90,343.91L249.82,342.23L251.93,343.05L254.68,339.97L259.05,340.05L259.57,342.32L262.57,343.75L267.29,338.71L271.97,334.79L273.99,332.23L273.73,325.62L277.21,317.82L280.89,313.69L286.18,309.82L287.10,307.26L287.30,304.31L288.61,301.53L288.19,296.98L289.19,289.86L290.76,284.86L293.16,280.56L293.64,275.71L294.36,270.12L297.48,266.04L301.78,263.46L308.39,266.18L313.50,269.14L319.37,269.93L325.36,271.50L327.76,266.65L328.86,266.04L332.52,266.84L341.46,262.83L344.63,264.53L347.23,264.29L348.43,262.34L351.41,261.65L357.45,262.50L362.60,262.68L365.25,261.83L370.11,268.46L373.72,269.43L375.87,268.08L379.58,268.61L384.05,266.91L385.96,270.34L393.02,275.68L393.02,275.68L392.54,285.06L395.76,286.15L393.18,289.00L390.09,291.13L387.02,295.32L385.33,299.05L384.88,305.49L383.02,308.56L382.96,314.61L380.65,316.85L380.35,321.63L379.25,322.25L378.50,326.64L380.52,330.29L381.03,339.97Z"/><path class="africa-country" data-name="Somalia" data-iso="SOM" data-covered="false" d="M479.33,317.36L474.58,310.74L474.48,281.49L481.50,272.39L483.70,269.86L488.84,269.71L496.00,264.05L506.45,263.70L529.14,239.60L534.74,232.90L538.36,227.97L538.36,223.78L538.36,215.68L538.39,212.38L538.44,212.25L538.44,212.25L541.01,212.09L544.71,210.90L548.96,210.09L552.76,207.34L555.80,207.32L555.99,209.54L555.24,214.21L555.28,218.43L553.58,221.32L551.32,230.00L547.45,238.97L542.49,249.22L535.60,260.99L528.75,269.97L519.31,280.93L511.27,287.42L499.27,295.39L491.78,301.50L483.00,311.23L481.15,315.46L479.33,317.36Z"/><path class="africa-country" data-name="Kenya" data-iso="KEN" data-covered="true" d="M460.20,341.39L448.68,333.37L448.13,328.71L419.02,312.35L417.67,311.47L417.59,302.96L419.89,299.71L423.84,294.40L426.76,288.55L423.23,279.33L422.29,275.30L418.48,269.73L423.42,264.94L428.86,259.65L433.03,260.99L433.03,265.50L435.77,268.14L441.36,268.14L451.52,274.96L454.06,275.04L455.94,274.82L457.72,275.74L463.07,276.38L465.44,273.03L472.78,269.67L476.01,272.39L481.50,272.39L474.48,281.49L474.58,310.74L479.33,317.36L473.71,320.56L471.73,323.91L468.72,324.50L467.58,330.16L465.00,333.40L463.44,338.74L460.20,341.39Z"/><path class="africa-country" data-name="Sudan" data-iso="SDN" data-covered="false" d="M342.72,237.79L336.61,234.28L333.82,231.96L333.31,229.47L334.61,226.13L334.59,222.85L329.96,217.83L329.05,214.40L329.14,212.45L326.19,210.09L326.10,205.43L324.42,202.33L321.60,202.79L322.41,199.84L324.49,196.50L323.58,193.17L326.22,190.71L324.55,188.84L326.67,183.88L330.33,177.97L337.26,178.53L336.86,146.66L336.96,143.29L346.19,143.27L346.19,127.24L378.46,127.24L409.61,127.24L441.45,127.24L444.04,135.11L442.28,136.57L443.45,144.84L446.39,154.42L449.45,156.40L453.84,159.36L449.78,163.94L443.87,165.26L441.34,167.73L440.55,173.06L437.09,184.86L437.94,188.07L436.67,194.96L433.40,202.87L428.56,206.85L425.12,212.98L424.31,216.26L420.51,218.51L418.13,226.91L418.24,234.13L418.15,227.87L417.04,227.71L417.17,223.72L416.21,220.96L412.08,217.79L411.11,212.00L412.08,206.07L408.35,205.52L407.80,207.32L402.98,207.73L404.91,210.07L405.60,214.90L401.19,219.31L397.19,225.09L393.06,225.92L386.30,221.23L383.27,222.89L382.45,225.23L378.31,226.75L378.04,228.40L370.04,228.40L368.94,226.75L363.15,226.47L360.26,227.85L358.05,227.16L353.92,222.47L352.54,220.27L346.75,221.37L344.55,225.09L342.48,232.26L339.72,233.78L337.26,234.65L342.72,237.79Z"/><path class="africa-country" data-name="Chad" data-iso="TCD" data-covered="false" d="M336.86,146.66L337.26,178.53L330.33,177.97L326.67,183.88L324.55,188.84L326.22,190.71L323.58,193.17L324.49,196.50L322.41,199.84L321.60,202.79L324.42,202.33L326.10,205.43L326.19,210.09L329.14,212.45L329.05,214.40L323.97,215.77L319.89,219.02L314.09,227.78L306.53,231.50L298.78,231.00L296.52,231.73L297.31,234.56L293.13,237.37L289.72,240.50L279.61,243.57L277.61,241.75L276.28,241.60L274.80,243.66L268.16,244.27L269.42,242.09L266.89,236.56L265.76,233.23L262.26,231.87L257.52,227.19L259.27,223.40L262.92,224.20L265.19,223.63L269.67,223.71L265.30,216.41L265.60,211.08L265.06,205.76L261.87,200.62L262.67,196.83L257.52,196.65L257.54,191.49L254.20,188.51L257.67,177.94L267.90,170.37L268.33,159.93L271.42,143.64L273.17,140.18L269.83,137.43L269.70,134.88L266.69,132.79L264.72,120.31L272.83,115.92L304.84,131.29L336.86,146.66Z"/><path class="africa-country" data-name="South Africa" data-iso="ZAF" data-covered="true" d="M276.71,533.25L280.56,529.28L283.73,531.48L285.08,534.91L288.68,535.50L293.73,537.01L298.04,536.43L305.21,532.32L305.22,502.67L307.38,503.88L312.14,511.51L311.40,516.40L313.20,519.22L318.95,518.40L322.96,514.82L326.76,512.40L328.73,508.56L332.64,506.69L336.03,507.67L339.86,509.92L346.39,510.31L351.53,508.45L352.34,505.94L353.75,502.10L358.12,501.46L360.53,498.44L363.21,493.09L370.41,487.10L381.77,481.19L385.04,481.28L388.92,482.64L391.63,481.67L395.90,482.47L399.74,493.77L401.83,499.48L400.40,508.43L401.08,511.31L397.03,509.84L394.71,510.41L393.95,512.75L391.76,515.76L391.84,518.54L396.63,522.89L401.33,522.02L402.96,518.46L409.05,518.52L407.04,524.37L406.10,531.04L404.02,534.66L398.54,538.71L396.97,539.88L393.57,543.95L391.33,548.08L386.78,553.83L377.71,562.11L372.04,566.93L365.98,570.58L357.59,573.70L353.50,574.11L352.46,576.34L347.58,575.16L343.61,576.68L334.91,575.14L330.04,576.12L326.72,575.70L318.44,578.86L311.59,580.14L306.63,583.17L302.98,583.36L299.58,580.50L296.87,580.35L293.41,576.77L293.03,577.88L291.96,575.72L292.01,571.02L289.40,565.64L291.99,564.18L291.78,558.01L286.52,550.50L282.49,543.70L282.48,543.68L276.71,533.25ZM378.13,536.29L374.62,533.82L370.87,535.46L366.52,538.60L362.24,543.68L368.26,549.85L371.14,549.06L372.61,546.49L377.09,545.24L378.45,542.62L380.91,538.71L378.13,536.29Z"/><path class="africa-country" data-name="Lesotho" data-iso="LSO" data-covered="false" d="M378.13,536.29L380.91,538.71L378.45,542.62L377.09,545.24L372.61,546.49L371.14,549.06L368.26,549.85L362.24,543.68L366.52,538.60L370.87,535.46L374.62,533.82L378.13,536.29Z"/><path class="africa-country" data-name="Zimbabwe" data-iso="ZWE" data-covered="false" d="M395.90,482.47L391.63,481.67L388.92,482.64L385.04,481.28L381.77,481.19L376.65,477.56L370.45,476.33L368.09,471.24L368.07,468.41L364.63,467.54L355.54,458.72L353.02,454.08L351.40,452.65L348.31,446.23L357.29,447.11L359.89,448.03L362.60,447.85L367.05,442.65L374.03,436.05L376.91,435.42L377.88,432.63L382.45,429.44L388.53,428.34L389.05,431.33L395.75,431.17L399.47,432.87L401.20,434.85L405.02,435.44L409.19,438.02L409.21,448.18L407.64,453.74L407.30,459.74L408.59,462.12L407.68,466.84L406.47,467.57L404.35,473.36L395.90,482.47Z"/><path class="africa-country" data-name="Botswana" data-iso="BWA" data-covered="false" d="M381.77,481.19L370.41,487.10L363.21,493.09L360.53,498.44L358.12,501.46L353.75,502.10L352.34,505.94L351.53,508.45L346.39,510.31L339.86,509.92L336.03,507.67L332.64,506.69L328.73,508.56L326.76,512.40L322.96,514.82L318.95,518.40L313.20,519.22L311.40,516.40L312.14,511.51L307.38,503.88L305.22,502.67L305.22,479.24L313.13,478.96L313.36,450.37L319.34,450.10L331.72,447.29L334.79,450.60L339.91,447.46L342.35,447.44L346.87,445.63L348.31,446.23L351.40,452.65L353.02,454.08L355.54,458.72L364.63,467.54L368.07,468.41L368.09,471.24L370.45,476.33L376.65,477.56L381.77,481.19Z"/><path class="africa-country" data-name="Namibia" data-iso="NAM" data-covered="false" d="M305.22,502.67L305.21,532.32L298.04,536.43L293.73,537.01L288.68,535.50L285.08,534.91L283.73,531.48L280.56,529.28L276.71,533.25L270.75,527.19L267.61,521.32L265.83,513.51L263.85,507.69L261.16,495.33L260.98,485.73L259.96,481.35L256.83,478.04L252.69,471.41L248.47,461.78L246.72,456.74L240.19,448.90L239.70,442.74L243.56,441.21L248.37,439.85L253.57,440.09L258.36,443.72L259.57,443.15L292.11,442.80L297.68,446.65L317.11,447.79L331.86,444.52L338.44,442.69L343.64,443.15L346.81,444.96L346.87,445.63L342.35,447.44L339.91,447.46L334.79,450.60L331.72,447.29L319.34,450.10L313.36,450.37L313.13,478.96L305.22,479.24L305.22,502.67Z"/><path class="africa-country" data-name="Senegal" data-iso="SEN" data-covered="true" d="M11.33,194.71L8.02,188.46L4.01,185.60L7.54,184.08L11.43,178.44L13.34,174.32L16.09,171.75L20.08,172.44L24.00,170.69L28.48,170.60L32.32,172.96L37.64,175.09L42.50,180.99L47.80,186.51L48.17,191.50L49.75,196.10L52.75,198.35L53.44,201.46L53.07,203.96L51.91,204.41L47.54,203.78L46.93,204.67L45.16,204.85L39.39,202.89L35.52,202.81L20.68,202.47L18.53,203.38L15.87,203.12L11.62,204.43L10.30,198.27L17.61,198.44L19.54,197.32L20.98,197.25L23.95,195.40L27.40,197.09L30.89,197.23L34.36,195.43L32.74,193.11L30.09,194.46L27.60,194.43L24.43,192.45L21.89,192.58L20.07,194.48L11.33,194.71Z"/><path class="africa-country" data-name="Mali" data-iso="MLI" data-covered="false" d="M53.07,203.96L53.44,201.46L52.75,198.35L49.75,196.10L48.17,191.50L47.80,186.51L50.50,185.04L51.85,180.32L54.39,180.13L60.00,182.37L64.53,180.78L67.63,181.31L68.84,179.53L101.05,179.40L102.83,173.78L101.44,172.79L97.57,138.15L93.69,103.50L105.98,103.36L133.06,120.87L160.14,138.39L162.05,142.15L167.04,144.45L170.76,145.75L170.85,150.86L179.76,150.07L179.78,168.56L175.39,173.92L174.71,178.87L167.58,180.14L156.62,180.83L153.66,183.69L148.51,184.00L143.36,184.04L141.36,182.50L136.94,183.64L129.44,186.97L127.91,189.48L121.68,193.08L120.59,195.14L117.22,196.78L113.34,195.69L111.14,197.65L109.96,203.16L103.59,209.81L103.78,212.53L101.59,215.93L102.12,220.59L98.81,221.78L96.93,222.80L95.69,219.36L93.37,220.27L91.99,220.11L90.51,222.45L84.31,222.39L82.09,221.18L81.04,221.91L78.59,219.60L79.01,217.21L78.01,216.27L76.30,217.06L76.61,214.45L78.26,212.38L74.97,209.02L74.01,206.81L72.23,205.04L70.62,204.83L68.69,205.96L66.10,207.03L63.90,208.77L60.46,208.12L58.23,206.09L56.90,205.82L54.81,206.89L53.54,206.90L53.07,203.96Z"/><path class="africa-country" data-name="Mauritania" data-iso="MRT" data-covered="false" d="M8.52,135.27L10.27,132.59L41.71,132.64L40.19,121.05L42.15,116.92L49.67,116.20L49.42,95.66L75.76,96.08L75.79,83.92L105.98,103.36L93.69,103.50L97.57,138.15L101.44,172.79L102.83,173.78L101.05,179.40L68.84,179.53L67.63,181.31L64.53,180.78L60.00,182.37L54.39,180.13L51.85,180.32L50.50,185.04L47.80,186.51L42.50,180.99L37.64,175.09L32.32,172.96L28.48,170.60L24.00,170.69L20.08,172.44L16.09,171.75L13.34,174.32L12.65,169.99L14.89,166.04L15.88,158.48L15.00,150.54L14.03,146.55L14.83,142.55L12.75,138.73L8.52,135.27Z"/><path class="africa-country" data-name="Benin" data-iso="BEN" data-covered="false" d="M167.11,253.60L160.47,254.54L158.50,249.00L158.86,230.57L157.25,228.91L156.94,224.97L154.15,222.16L151.70,219.79L152.72,215.56L155.48,214.66L157.12,211.15L161.04,210.40L162.80,208.00L165.49,205.64L168.37,205.62L174.49,210.24L174.18,212.91L175.98,217.67L174.40,220.90L175.25,223.06L171.35,228.03L168.88,230.49L167.37,235.56L167.57,240.66L167.11,253.60Z"/><path class="africa-country" data-name="Niger" data-iso="NER" data-covered="false" d="M264.72,120.31L266.69,132.79L269.70,134.88L269.83,137.43L273.17,140.18L271.42,143.64L268.33,159.93L267.90,170.37L257.67,177.94L254.20,188.51L257.54,191.49L257.52,196.65L262.67,196.83L261.87,200.62L259.60,201.08L259.34,203.63L257.85,203.81L252.42,195.02L250.54,194.70L244.26,199.19L238.04,196.85L233.72,196.38L231.41,197.50L226.70,197.26L221.96,200.68L217.87,200.88L208.15,196.73L204.35,198.70L200.25,198.56L197.24,195.53L189.20,192.54L180.57,193.49L178.48,195.22L177.35,199.84L175.05,203.08L174.49,210.24L168.37,205.62L165.49,205.64L162.80,208.00L162.98,202.50L153.72,200.68L153.47,196.79L148.95,191.55L147.87,187.89L148.51,184.00L153.66,183.69L156.62,180.83L167.58,180.14L174.71,178.87L175.39,173.92L179.78,168.56L179.76,150.07L191.08,146.49L214.32,130.72L241.83,115.42L254.53,118.89L259.04,123.29L264.72,120.31Z"/><path class="africa-country" data-name="Nigeria" data-iso="NGA" data-covered="true" d="M167.11,253.60L167.57,240.66L167.37,235.56L168.88,230.49L171.35,228.03L175.25,223.06L174.40,220.90L175.98,217.67L174.18,212.91L174.49,210.24L175.05,203.08L177.35,199.84L178.48,195.22L180.57,193.49L189.20,192.54L197.24,195.53L200.25,198.56L204.35,198.70L208.15,196.73L217.87,200.88L221.96,200.68L226.70,197.26L231.41,197.50L233.72,196.38L238.04,196.85L244.26,199.19L250.54,194.70L252.42,195.02L257.85,203.81L259.34,203.63L262.52,206.83L261.65,208.28L261.22,210.95L254.46,217.16L252.34,222.28L251.21,226.45L249.50,228.24L247.88,233.86L243.59,237.17L242.35,241.23L240.54,244.47L239.79,247.80L234.28,250.51L229.77,247.21L226.73,247.34L221.95,252.04L219.62,252.11L215.80,259.86L213.74,265.54L205.40,268.43L202.36,268.01L199.27,269.80L192.85,269.63L188.55,264.61L185.91,258.80L180.23,253.51L174.19,253.61L167.11,253.60Z"/><path class="africa-country" data-name="Cameroon" data-iso="CMR" data-covered="false" d="M261.87,200.62L265.06,205.76L265.60,211.08L265.30,216.41L269.67,223.71L265.19,223.63L262.92,224.20L259.27,223.40L257.52,227.19L262.26,231.87L265.76,233.23L266.89,236.56L269.42,242.09L268.16,244.27L264.12,252.40L262.20,253.86L261.58,260.08L262.38,263.46L261.73,265.85L265.52,270.05L266.21,272.93L269.17,277.07L272.84,279.65L273.20,283.32L274.05,285.64L273.47,289.98L267.09,288.08L260.60,285.96L250.47,285.65L249.47,285.21L244.72,286.24L239.84,285.17L236.02,285.70L222.96,285.51L224.13,279.17L221.00,273.87L217.33,272.51L215.70,268.91L213.65,267.76L213.74,265.54L215.80,259.86L219.62,252.11L221.95,252.04L226.73,247.34L229.77,247.21L234.28,250.51L239.79,247.80L240.54,244.47L242.35,241.23L243.59,237.17L247.88,233.86L249.50,228.24L251.21,226.45L252.34,222.28L254.46,217.16L261.22,210.95L261.65,208.28L262.52,206.83L259.34,203.63L259.60,201.08L261.87,200.62Z"/><path class="africa-country" data-name="Togo" data-iso="TGO" data-covered="false" d="M152.72,215.56L151.70,219.79L154.15,222.16L156.94,224.97L157.25,228.91L158.86,230.57L158.50,249.00L160.47,254.54L154.01,256.25L152.22,253.43L150.08,248.34L149.44,244.35L151.22,237.12L149.20,234.19L148.44,227.86L148.45,222.03L145.10,217.90L145.69,215.39L152.72,215.56Z"/><path class="africa-country" data-name="Ghana" data-iso="GHA" data-covered="true" d="M145.69,215.39L145.10,217.90L148.45,222.03L148.44,227.86L149.20,234.19L151.22,237.12L149.44,244.35L150.08,248.34L152.22,253.43L154.01,256.25L141.43,260.95L136.96,263.70L129.73,266.03L122.57,263.75L122.94,260.59L119.46,253.67L121.55,244.60L124.93,237.86L122.80,226.44L121.71,220.40L121.90,215.84L135.84,215.46L139.39,216.05L141.98,214.75L145.69,215.39Z"/><path class="africa-country" data-name="Côte d'Ivoire" data-iso="CIV" data-covered="true" d="M81.04,221.91L82.09,221.18L84.31,222.39L90.51,222.45L91.99,220.11L93.37,220.27L95.69,219.36L96.93,222.80L98.81,221.78L102.12,220.59L105.73,222.34L107.13,225.00L110.74,226.69L113.55,224.68L117.31,224.37L122.80,226.44L124.93,237.86L121.55,244.60L119.46,253.67L122.94,260.59L122.57,263.75L118.92,263.83L113.32,262.26L108.17,262.36L98.66,263.76L93.09,266.08L85.14,269.02L83.59,268.81L84.21,262.20L84.98,261.19L84.73,258.03L81.33,254.67L78.78,254.13L76.44,251.93L78.19,248.36L77.38,244.48L77.75,242.15L79.03,242.14L79.50,238.64L78.88,237.08L79.65,235.97L82.63,235.00L80.65,228.58L78.79,225.26L79.44,222.53L81.04,221.91Z"/><path class="africa-country" data-name="Guinea" data-iso="GIN" data-covered="false" d="M35.52,202.81L39.39,202.89L45.16,204.85L46.93,204.67L47.54,203.78L51.91,204.41L53.07,203.96L53.54,206.90L54.81,206.89L56.90,205.82L58.23,206.09L60.46,208.12L63.90,208.77L66.10,207.03L68.69,205.96L70.62,204.83L72.23,205.04L74.01,206.81L74.97,209.02L78.26,212.38L76.61,214.45L76.30,217.06L78.01,216.27L79.01,217.21L78.59,219.60L81.04,221.91L79.44,222.53L78.79,225.26L80.65,228.58L82.63,235.00L79.65,235.97L78.88,237.08L79.50,238.64L79.03,242.14L77.75,242.15L75.48,241.94L73.85,245.17L71.58,245.13L70.01,243.42L70.55,240.20L67.19,235.28L65.09,236.19L63.38,236.36L61.17,236.82L61.26,233.88L59.97,231.78L60.23,229.45L58.49,226.07L56.25,223.20L49.83,223.19L47.96,224.71L45.75,224.89L44.38,226.62L43.45,228.85L39.16,232.38L35.64,227.63L32.52,224.48L30.46,223.44L28.46,221.85L27.55,218.30L26.37,216.53L24.04,215.22L27.61,211.31L30.05,211.45L32.14,210.11L33.91,210.09L35.18,209.03L34.49,206.37L35.37,205.53L35.52,202.81Z"/><path class="africa-country" data-name="Guinea-Bissau" data-iso="GNB" data-covered="false" d="M11.62,204.43L15.87,203.12L18.53,203.38L20.68,202.47L35.52,202.81L35.37,205.53L34.49,206.37L35.18,209.03L33.91,210.09L32.14,210.11L30.05,211.45L27.61,211.31L24.04,215.22L19.75,211.86L16.38,211.33L14.53,209.07L14.58,207.85L12.13,206.14L11.62,204.43Z"/><path class="africa-country" data-name="Liberia" data-iso="LBR" data-covered="false" d="M77.75,242.15L77.38,244.48L78.19,248.36L76.44,251.93L78.78,254.13L81.33,254.67L84.73,258.03L84.98,261.19L84.21,262.20L83.59,268.81L81.49,268.88L73.21,265.05L65.92,258.94L59.08,254.55L53.67,249.37L55.59,246.80L56.02,244.47L59.64,240.11L63.38,236.36L65.09,236.19L67.19,235.28L70.55,240.20L70.01,243.42L71.58,245.13L73.85,245.17L75.48,241.94L77.75,242.15Z"/><path class="africa-country" data-name="Sierra Leone" data-iso="SLE" data-covered="false" d="M39.16,232.38L43.45,228.85L44.38,226.62L45.75,224.89L47.96,224.71L49.83,223.19L56.25,223.20L58.49,226.07L60.23,229.45L59.97,231.78L61.26,233.88L61.17,236.82L63.38,236.36L59.64,240.11L56.02,244.47L55.59,246.80L53.67,249.37L51.51,248.78L45.73,245.54L41.55,241.24L40.15,238.31L39.16,232.38Z"/><path class="africa-country" data-name="Burkina Faso" data-iso="BFA" data-covered="false" d="M102.12,220.59L101.59,215.93L103.78,212.53L103.59,209.81L109.96,203.16L111.14,197.65L113.34,195.69L117.22,196.78L120.59,195.14L121.68,193.08L127.91,189.48L129.44,186.97L136.94,183.64L141.36,182.50L143.36,184.04L148.51,184.00L147.87,187.89L148.95,191.55L153.47,196.79L153.72,200.68L162.98,202.50L162.80,208.00L161.04,210.40L157.12,211.15L155.48,214.66L152.72,215.56L145.69,215.39L141.98,214.75L139.39,216.05L135.84,215.46L121.90,215.84L121.71,220.40L122.80,226.44L117.31,224.37L113.55,224.68L110.74,226.69L107.13,225.00L105.73,222.34L102.12,220.59Z"/><path class="africa-country" data-name="Central African Rep." data-iso="CAF" data-covered="false" d="M365.25,261.83L362.60,262.68L357.45,262.50L351.41,261.65L348.43,262.34L347.23,264.29L344.63,264.53L341.46,262.83L332.52,266.84L328.86,266.04L327.76,266.65L325.36,271.50L319.37,269.93L313.50,269.14L308.39,266.18L301.78,263.46L297.48,266.04L294.36,270.12L293.64,275.71L288.47,275.27L283.04,273.92L278.26,278.17L274.05,285.64L273.20,283.32L272.84,279.65L269.17,277.07L266.21,272.93L265.52,270.05L261.73,265.85L262.38,263.46L261.58,260.08L262.20,253.86L264.12,252.40L268.16,244.27L274.80,243.66L276.28,241.60L277.61,241.75L279.61,243.57L289.72,240.50L293.13,237.37L297.31,234.56L296.52,231.73L298.78,231.00L306.53,231.50L314.09,227.78L319.89,219.02L323.97,215.77L329.05,214.40L329.96,217.83L334.59,222.85L334.61,226.13L333.31,229.47L333.82,231.96L336.61,234.28L342.72,237.79L347.12,241.03L347.19,243.64L352.59,247.82L355.93,251.29L357.96,256.11L363.96,259.29L365.25,261.83Z"/><path class="africa-country" data-name="Congo" data-iso="COG" data-covered="false" d="M293.64,275.71L293.16,280.56L290.76,284.86L289.19,289.86L288.19,296.98L288.61,301.53L287.30,304.31L287.10,307.26L286.18,309.82L280.89,313.69L277.21,317.82L273.73,325.62L273.99,332.23L271.97,334.79L267.29,338.71L262.57,343.75L259.57,342.32L259.05,340.05L254.68,339.97L251.93,343.05L249.82,342.23L246.82,339.47L244.39,340.82L241.15,344.29L234.56,335.79L240.67,331.36L237.64,326.05L240.40,324.03L245.81,323.05L246.45,319.49L250.74,323.34L257.83,323.68L260.29,319.89L261.30,314.55L260.43,308.28L256.63,303.54L260.11,294.24L258.10,292.64L252.13,293.30L249.89,289.15L250.47,285.65L260.60,285.96L267.09,288.08L273.47,289.98L274.05,285.64L278.26,278.17L283.04,273.92L288.47,275.27L293.64,275.71Z"/><path class="africa-country" data-name="Gabon" data-iso="GAB" data-covered="false" d="M236.02,285.70L239.84,285.17L244.72,286.24L249.47,285.21L250.47,285.65L249.89,289.15L252.13,293.30L258.10,292.64L260.11,294.24L256.63,303.54L260.43,308.28L261.30,314.55L260.29,319.89L257.83,323.68L250.74,323.34L246.45,319.49L245.81,323.05L240.40,324.03L237.64,326.05L240.67,331.36L234.56,335.79L226.31,327.68L221.00,321.06L216.13,312.77L216.39,310.10L218.14,307.53L220.09,301.69L221.71,295.74L224.42,295.27L236.09,295.36L236.02,285.70Z"/><path class="africa-country" data-name="Eq. Guinea" data-iso="GNQ" data-covered="false" d="M222.96,285.51L236.02,285.70L236.09,295.36L224.42,295.27L221.71,295.74L220.20,294.53L222.96,285.51Z"/><path class="africa-country" data-name="Zambia" data-iso="ZMB" data-covered="false" d="M392.27,370.80L395.62,372.84L398.82,374.19L403.93,375.54L408.48,377.95L412.27,381.53L414.31,388.34L412.95,390.52L411.33,397.02L412.87,403.68L410.35,406.47L407.91,413.93L412.13,416.01L387.77,422.62L388.53,428.34L382.45,429.44L377.88,432.63L376.91,435.42L374.03,436.05L367.05,442.65L362.60,447.85L359.89,448.03L357.29,447.11L348.31,446.23L346.87,445.63L346.81,444.96L343.64,443.15L338.44,442.69L331.86,444.52L326.63,439.50L321.21,432.93L321.58,407.39L338.29,407.49L337.61,404.72L338.81,401.71L337.40,397.95L338.31,394.06L337.46,391.56L340.23,391.77L340.69,394.26L344.45,394.07L349.55,394.81L352.23,398.45L358.66,399.57L363.57,397.04L365.37,401.24L371.52,402.37L374.48,405.79L377.78,410.20L383.92,410.27L383.25,401.61L381.05,403.07L375.43,399.95L373.26,398.52L374.26,390.46L375.68,380.96L373.89,377.42L376.17,372.29L378.33,371.34L389.11,369.98L392.27,370.80Z"/><path class="africa-country" data-name="Malawi" data-iso="MWI" data-covered="false" d="M408.48,377.95L416.35,379.44L417.97,381.66L420.69,385.41L422.94,396.33L420.69,402.43L422.94,412.86L425.72,412.74L428.62,415.33L431.98,421.14L432.67,431.46L429.19,433.15L426.74,438.72L421.50,433.76L420.91,428.10L422.60,424.37L422.13,421.15L418.96,419.12L416.75,419.86L412.13,416.01L407.91,413.93L410.35,406.47L412.87,403.68L411.33,397.02L412.95,390.52L414.31,388.34L412.27,381.53L408.48,377.95Z"/><path class="africa-country" data-name="Mozambique" data-iso="MOZ" data-covered="false" d="M422.94,396.33L428.98,395.68L438.62,397.94L440.72,396.92L446.31,396.72L449.17,394.31L453.98,394.44L462.76,391.32L469.15,386.67L469.15,386.67L469.15,386.67L470.45,390.27L470.12,398.27L471.11,405.31L471.42,417.85L472.83,421.79L470.44,427.52L467.32,433.10L462.21,438.08L454.87,441.13L445.82,445.02L436.75,453.64L433.67,455.11L428.06,460.81L424.75,462.67L424.08,468.39L427.88,474.47L429.47,479.18L429.57,481.58L430.99,481.18L430.76,489.05L429.45,492.78L431.35,494.15L430.15,497.49L426.80,500.35L420.17,503.06L410.52,507.41L407.00,510.38L407.69,513.76L409.74,514.30L409.05,518.52L402.96,518.46L402.27,514.91L401.08,511.31L400.40,508.43L401.83,499.48L399.74,493.77L395.90,482.47L404.35,473.36L406.47,467.57L407.68,466.84L408.59,462.12L407.30,459.74L407.64,453.74L409.21,448.18L409.19,438.02L405.02,435.44L401.20,434.85L399.47,432.87L395.75,431.17L389.05,431.33L388.53,428.34L387.77,422.62L412.13,416.01L416.75,419.86L418.96,419.12L422.13,421.15L422.60,424.37L420.91,428.10L421.50,433.76L426.74,438.72L429.19,433.15L432.67,431.46L431.98,421.14L428.62,415.33L425.72,412.74L422.94,412.86L420.69,402.43L422.94,396.33Z"/><path class="africa-country" data-name="eSwatini" data-iso="SWZ" data-covered="false" d="M402.96,518.46L401.33,522.02L396.63,522.89L391.84,518.54L391.76,515.76L393.95,512.75L394.71,510.41L397.03,509.84L401.08,511.31L402.27,514.91L402.96,518.46Z"/><path class="africa-country" data-name="Angola" data-iso="AGO" data-covered="false" d="M249.82,342.23L246.90,343.91L245.59,345.98L245.34,349.48L243.30,350.33L241.15,344.29L244.39,340.82L246.82,339.47L249.82,342.23ZM244.42,352.82L247.73,351.74L250.06,351.89L252.88,350.92L276.57,351.03L278.55,357.01L280.85,361.82L282.69,364.42L285.77,368.62L291.08,367.97L293.73,366.84L298.16,367.97L299.36,365.97L301.38,361.29L306.36,360.97L306.79,359.58L310.89,359.55L310.19,362.45L319.93,362.37L320.07,367.43L321.70,370.52L320.52,375.36L321.11,380.30L323.79,383.28L323.36,392.83L325.34,392.09L328.83,392.29L333.80,391.09L337.46,391.56L338.31,394.06L337.40,397.95L338.81,401.71L337.61,404.72L338.29,407.49L321.58,407.39L321.21,432.93L326.63,439.50L331.86,444.52L317.11,447.79L297.68,446.65L292.11,442.80L259.57,443.15L258.36,443.72L253.57,440.09L248.37,439.85L243.56,441.21L239.70,442.74L238.94,437.69L240.06,430.63L242.83,423.28L243.24,419.84L245.85,412.60L247.76,409.31L252.37,404.06L254.95,400.49L255.79,394.54L255.37,389.99L252.97,387.12L250.83,382.25L248.86,377.44L249.29,375.77L251.76,372.58L249.32,364.83L247.68,359.45L243.66,354.38L244.42,352.82Z"/><path class="africa-country" data-name="Burundi" data-iso="BDI" data-covered="false" d="M390.10,323.22L390.57,326.39L392.30,328.20L392.37,330.81L390.39,332.49L387.26,336.68L384.35,339.59L381.03,339.97L380.52,330.29L378.50,326.64L383.38,327.27L385.84,322.70L390.10,323.22Z"/><path class="africa-country" data-name="Madagascar" data-iso="MDG" data-covered="false" d="M543.22,403.95L545.35,407.37L547.34,412.67L548.63,422.32L550.71,426.08L549.91,429.93L548.49,432.29L545.76,427.59L544.26,429.96L545.79,435.91L545.07,439.31L542.86,441.17L542.35,447.97L539.19,457.33L535.23,468.39L530.27,483.60L527.20,494.76L523.57,504.07L517.04,505.97L510.03,509.37L505.41,507.32L499.04,504.44L496.82,500.21L496.29,493.09L493.47,486.69L492.73,480.92L494.17,475.13L497.86,473.74L497.89,471.07L501.72,464.98L502.45,459.87L500.58,456.07L499.06,451.00L498.42,443.61L501.23,439.12L502.30,434.02L506.30,433.73L510.78,432.08L513.75,430.63L517.28,430.52L521.86,425.95L528.46,421.00L530.87,416.97L529.78,413.54L533.19,414.50L537.61,408.92L537.76,404.09L540.42,400.50L543.22,403.95Z"/><path class="africa-country" data-name="Gambia" data-iso="GMB" data-covered="false" d="M11.33,194.71L20.07,194.48L21.89,192.58L24.43,192.45L27.60,194.43L30.09,194.46L32.74,193.11L34.36,195.43L30.89,197.23L27.40,197.09L23.95,195.40L20.98,197.25L19.54,197.32L17.61,198.44L10.30,198.27L11.33,194.71Z"/><path class="africa-country" data-name="Tunisia" data-iso="TUN" data-covered="false" d="M221.62,60.55L218.20,46.14L213.25,42.90L213.18,40.95L206.61,36.17L205.91,30.12L210.85,25.65L212.74,19.03L211.47,11.37L213.10,7.25L221.84,4.01L227.46,4.98L227.23,9.04L234.04,6.08L234.61,7.63L230.59,11.56L230.54,15.27L233.32,17.27L232.26,24.22L226.98,28.25L228.50,32.63L232.66,32.76L234.68,36.58L237.73,37.83L237.28,44.00L233.36,46.30L230.89,48.88L225.38,51.97L226.23,55.30L225.54,58.69L221.62,60.55Z"/><path class="africa-country" data-name="Algeria" data-iso="DZA" data-covered="false" d="M75.79,83.92L75.94,82.37L75.94,81.83L75.87,72.32L88.83,66.39L96.85,65.17L103.42,63.01L106.49,58.99L115.88,55.82L116.22,49.87L120.86,49.17L124.50,46.20L135.00,44.85L136.47,41.73L134.36,40.03L131.59,31.55L131.11,26.67L128.08,21.53L135.80,17.14L144.48,15.74L149.55,12.43L157.28,9.99L170.88,8.56L184.16,7.91L188.21,9.10L195.77,5.94L204.35,5.87L207.61,7.74L213.10,7.25L211.47,11.37L212.74,19.03L210.85,25.65L205.91,30.12L206.61,36.17L213.18,40.95L213.25,42.90L218.20,46.14L221.62,60.55L224.22,67.64L224.65,71.37L223.24,77.91L223.82,81.57L222.80,85.97L223.50,91.02L220.31,94.37L225.06,100.22L225.36,103.66L228.22,108.14L231.97,106.67L238.31,110.40L241.83,115.42L214.32,130.72L191.08,146.49L179.76,150.07L170.85,150.86L170.76,145.75L167.04,144.45L162.05,142.15L160.14,138.39L133.06,120.87L105.98,103.36L75.79,83.92Z"/><path class="africa-country" data-name="Eritrea" data-iso="ERI" data-covered="false" d="M437.94,188.07L437.09,184.86L440.55,173.06L441.34,167.73L443.87,165.26L449.78,163.94L453.84,159.36L458.50,168.66L460.72,176.02L465.12,179.93L476.07,187.52L480.53,192.09L484.88,196.73L487.40,199.48L491.34,201.90L488.92,203.86L485.48,203.16L482.74,200.56L479.44,195.86L475.88,193.28L473.80,190.51L466.82,187.29L461.31,187.19L459.38,185.51L454.67,187.40L449.80,183.76L447.29,189.75L437.94,188.07Z"/><path class="africa-country" data-name="Morocco" data-iso="MAR" data-covered="true" d="M128.08,21.53L131.11,26.67L131.59,31.55L134.36,40.03L136.47,41.73L135.00,44.85L124.50,46.20L120.86,49.17L116.22,49.87L115.88,55.82L106.49,58.99L103.42,63.01L96.85,65.17L88.83,66.39L75.87,72.32L75.94,81.83L74.72,81.83L74.90,86.13L69.94,86.39L67.35,88.22L63.70,88.22L60.80,87.17L54.05,88.04L51.43,94.29L48.92,94.88L45.15,105.00L33.99,113.66L31.34,124.75L28.05,128.35L27.09,131.25L9.01,131.89L8.87,131.88L9.25,128.16L12.33,125.97L14.96,121.78L14.44,119.07L17.20,113.40L21.67,108.30L24.37,107.01L26.49,102.32L26.68,98.05L29.58,93.09L34.93,90.16L40.02,81.96L40.17,81.85L44.20,78.77L51.67,77.88L57.99,72.39L62.02,70.25L68.72,63.55L66.71,53.56L69.76,46.66L70.84,42.43L76.00,37.01L84.06,33.34L90.01,30.02L95.37,21.71L97.90,16.78L103.81,16.82L108.65,20.22L116.28,19.67L124.60,21.44L128.08,21.53Z"/><path class="africa-country" data-name="Egypt" data-iso="EGY" data-covered="true" d="M441.45,127.24L409.61,127.24L378.46,127.24L346.19,127.24L346.19,97.68L346.19,69.13L343.78,62.66L345.85,57.71L344.61,54.27L347.52,50.42L358.20,50.29L365.92,52.41L373.89,54.78L377.61,56.03L383.79,53.49L387.09,51.19L394.17,50.53L399.88,51.54L402.07,55.52L403.93,52.90L410.37,54.80L416.62,55.25L420.57,53.23L420.57,53.23L425.05,64.93L425.85,67.02L423.59,70.25L421.87,76.31L419.68,80.49L417.81,81.89L415.13,79.30L411.51,75.72L405.78,64.21L404.96,64.94L408.29,73.41L413.21,81.48L419.28,93.99L422.25,98.35L424.82,102.88L432.03,111.77L430.43,113.17L430.69,118.39L440.04,125.59L441.45,127.24Z"/><path class="africa-country" data-name="Libya" data-iso="LBY" data-covered="false" d="M346.19,127.24L346.19,143.27L336.96,143.29L336.86,146.66L304.84,131.29L272.83,115.92L264.72,120.31L259.04,123.29L254.53,118.89L241.83,115.42L238.31,110.40L231.97,106.67L228.22,108.14L225.36,103.66L225.06,100.22L220.31,94.37L223.50,91.02L222.80,85.97L223.82,81.57L223.24,77.91L224.65,71.37L224.22,67.64L221.62,60.55L225.54,58.69L226.23,55.30L225.38,51.97L230.89,48.88L233.36,46.30L237.28,44.00L237.73,37.83L247.16,40.60L250.53,39.91L257.24,41.25L267.89,44.83L271.65,51.97L278.85,53.53L290.17,56.89L298.72,60.88L302.63,58.80L306.48,55.10L304.61,48.95L307.13,45.05L312.91,41.29L318.44,40.19L329.30,41.84L332.04,45.42L335.03,45.46L337.58,46.83L345.56,47.77L347.52,50.42L344.61,54.27L345.85,57.71L343.78,62.66L346.19,69.13L346.19,97.68L346.19,127.24Z"/><path class="africa-country" data-name="Ethiopia" data-iso="ETH" data-covered="true" d="M529.14,239.60L506.45,263.70L496.00,264.05L488.84,269.71L483.70,269.86L481.50,272.39L476.01,272.39L472.78,269.67L465.44,273.03L463.07,276.38L457.72,275.74L455.94,274.82L454.06,275.04L451.52,274.96L441.36,268.14L435.77,268.14L433.03,265.50L433.03,260.99L428.86,259.65L424.12,250.91L420.45,249.05L419.04,245.84L414.98,241.93L410.05,241.35L412.78,236.78L417.04,236.58L418.24,234.13L418.13,226.91L420.51,218.51L424.31,216.26L425.12,212.98L428.56,206.85L433.40,202.87L436.67,194.96L437.94,188.07L447.29,189.75L449.80,183.76L454.67,187.40L459.38,185.51L461.31,187.19L466.82,187.29L473.80,190.51L475.88,193.28L479.44,195.86L482.74,200.56L485.48,203.16L482.66,206.71L479.95,210.48L480.57,212.69L480.70,215.13L485.18,215.27L487.12,214.70L488.90,216.13L487.15,218.97L490.11,223.39L493.07,227.26L496.14,230.12L522.39,239.65L529.14,239.60Z"/><path class="africa-country" data-name="Djibouti" data-iso="DJI" data-covered="false" d="M485.48,203.16L488.92,203.86L491.34,201.90L493.24,204.38L492.99,207.72L488.41,209.64L491.86,211.83L488.90,216.13L487.12,214.70L485.18,215.27L480.70,215.13L480.57,212.69L479.95,210.48L482.66,206.71L485.48,203.16Z"/><path class="africa-country" data-name="Somaliland" data-iso="-99" data-covered="false" d="M538.44,212.25L538.44,212.25L538.39,212.38L538.36,215.68L538.36,223.78L538.36,227.97L534.74,232.90L529.14,239.60L522.39,239.65L496.14,230.12L493.07,227.26L490.11,223.39L487.15,218.97L488.90,216.13L491.86,211.83L494.47,213.31L496.04,216.63L499.66,219.99L503.65,220.02L511.22,217.97L519.95,217.01L527.02,214.52L531.00,213.99L533.87,212.53L538.44,212.25L538.44,212.25Z"/><path class="africa-country" data-name="Uganda" data-iso="UGA" data-covered="true" d="M417.67,311.47L401.31,312.09L392.51,311.99L389.70,312.96L384.90,315.43L382.96,314.61L383.02,308.56L384.88,305.49L385.33,299.05L387.02,295.32L390.09,291.13L393.18,289.00L395.76,286.15L392.54,285.06L393.02,275.68L393.02,275.68L396.33,273.49L401.43,275.28L407.90,273.40L413.54,273.42L418.48,269.73L422.29,275.30L423.23,279.33L426.76,288.55L423.84,294.40L419.89,299.71L417.59,302.96L417.67,311.47Z"/><path class="africa-country" data-name="Rwanda" data-iso="RWA" data-covered="true" d="M389.70,312.96L392.88,317.48L392.42,322.21L390.10,323.22L390.10,323.22L385.84,322.70L383.38,327.27L378.50,326.64L379.25,322.25L380.35,321.63L380.65,316.85L382.96,314.61L384.90,315.43L389.70,312.96Z"/><path class="africa-country" data-name="S. Sudan" data-iso="SSD" data-covered="false" d="M393.02,275.68L385.96,270.34L384.05,266.91L379.58,268.61L375.87,268.08L373.72,269.43L370.11,268.46L365.25,261.83L363.96,259.29L357.96,256.11L355.93,251.29L352.59,247.82L347.19,243.64L347.12,241.03L342.72,237.79L337.26,234.65L339.72,233.78L342.48,232.26L344.55,225.09L346.75,221.37L352.54,220.27L353.92,222.47L358.05,227.16L360.26,227.85L363.15,226.47L368.94,226.75L370.04,228.40L378.04,228.40L378.31,226.75L382.45,225.23L383.27,222.89L386.30,221.23L393.06,225.92L397.19,225.09L401.19,219.31L405.60,214.90L404.91,210.07L402.98,207.73L407.80,207.32L408.35,205.52L412.08,206.07L411.11,212.00L412.08,217.79L416.21,220.96L417.17,223.72L417.04,227.71L418.15,227.87L418.24,234.13L417.04,236.58L412.78,236.78L410.05,241.35L414.98,241.93L419.04,245.84L420.45,249.05L424.12,250.91L428.86,259.65L423.42,264.94L418.48,269.73L413.54,273.42L407.90,273.40L401.43,275.28L396.33,273.49L393.02,275.68Z"/></g></svg>